<?xml version="1.0" encoding="iso-8859-1"?>
<svg fill="white" height="32px" width="32px" version="1.1" id="Layer_1" xmlns="http://www.w3.org/2000/svg" xmlns:xlink="http://www.w3.org/1999/xlink" 
	 viewBox="0 0 471.022 471.022" xml:space="preserve">
<g>
	<g>
		<path d="M464.237,85.568L464.237,85.568c-19.1-21.6-70.6-10.9-111.4,2.2c-18.9-14.7-40.7-25.6-64.5-32
			c-47.2-12.7-96.5-6.1-138.9,18.5c-65.7,38.2-99,111.6-90.3,183.4c-31.5,28.4-67,67.9-57.6,95.4c3,8.7,11.4,19.4,35.1,21.3
			c0.1,0,0.1,0,0.2,0c1.8,0.1,3.7,0.2,5.7,0.2c17.3,0,39.7-4.1,65.3-11.8c23.1,25.2,52.8,43.3,86.3,52.4c15.8,4.3,31.8,6.4,47.7,6.4
			c31.7,0,63-8.4,91.3-24.8c42.5-25.1,72.8-65.4,85.4-113.4c8.6-32.9,8.2-67-0.9-99.1c23.3-21.7,40-41.7,47.8-58.4
			C475.337,104.868,470.237,92.368,464.237,85.568z M38.137,354.368c-5.8-0.5-15.7-2.1-17.6-7.7c-3-8.9,6.8-31.1,43-65.7
			c4.1,16.1,10.4,31.9,19,47c3.5,6.3,7.4,12.3,11.6,18C71.537,352.168,52.337,355.168,38.137,354.368z M99.837,318.168
			c-45.3-79.6-18.5-181.2,59.7-226.6c25.2-14.6,53.1-22.1,81.4-22.1c14.1,0,28.3,1.9,42.3,5.6c42.3,11.4,77.6,38.7,99.4,77
			c4.8,8.5,8.8,17.2,11.9,26.1c-33.6,29.5-79.6,62.1-131.5,92.3c-51.7,30.4-104.7,54.7-148.7,69.3
			C109.037,332.968,104.137,325.768,99.837,318.168z M323.037,379.468c-37.8,22-81.7,27.8-123.6,16.4c-26.8-7.3-50.8-21-70.4-40
			c43.6-15.2,94.2-38.8,144.2-68.2c49.6-28.9,93.6-59.6,127.4-88.4C415.437,268.268,385.937,342.168,323.037,379.468z
			 M447.337,117.368L447.337,117.368c-6.1,13-19,28.9-36.9,46.2c-3-7.3-6.5-14.4-10.4-21.4c-8.2-14.4-18.2-27.5-29.6-38.9
			c48.2-14.1,72.6-11.6,78.8-4.5C453.137,103.168,449.737,112.268,447.337,117.368z"/>
	</g>
</g>
</svg>